<svg width="20" height="21" viewBox="0 0 20 21" fill="none" xmlns="http://www.w3.org/2000/svg">
<mask id="mask0_81_532" style="mask-type:alpha" maskUnits="userSpaceOnUse" x="0" y="0" width="20" height="21">
<rect y="0.5" width="20" height="20" fill="#E1DDF4"/>
</mask>
<g mask="url(#mask0_81_532)">
<path d="M7.1664 19.25L5.58307 16.5833L2.58307 15.9167L2.87474 12.8333L0.833069 10.5L2.87474 8.16667L2.58307 5.08333L5.58307 4.41667L7.1664 1.75L9.99973 2.95833L12.8331 1.75L14.4164 4.41667L17.4164 5.08333L17.1247 8.16667L19.1664 10.5L17.1247 12.8333L17.4164 15.9167L14.4164 16.5833L12.8331 19.25L9.99973 18.0417L7.1664 19.25ZM9.12473 13.4583L13.8331 8.75L12.6664 7.54167L9.12473 11.0833L7.33307 9.33333L6.1664 10.5L9.12473 13.4583Z" fill="#0FAB4D"/>
</g>
</svg>
