<svg width="24" height="25" viewBox="0 0 24 25" fill="none" xmlns="http://www.w3.org/2000/svg">
<mask id="mask0_81_519" style="mask-type:alpha" maskUnits="userSpaceOnUse" x="0" y="0" width="24" height="25">
<rect y="0.5" width="24" height="24" fill="#E1DDF4"/>
</mask>
<g mask="url(#mask0_81_519)">
<path d="M18 18.5C18.4167 18.5 18.7708 18.3542 19.0625 18.0625C19.3542 17.7708 19.5 17.4167 19.5 17C19.5 16.5833 19.3542 16.2292 19.0625 15.9375C18.7708 15.6458 18.4167 15.5 18 15.5C17.5833 15.5 17.2292 15.6458 16.9375 15.9375C16.6458 16.2292 16.5 16.5833 16.5 17C16.5 17.4167 16.6458 17.7708 16.9375 18.0625C17.2292 18.3542 17.5833 18.5 18 18.5ZM18 21.5C18.5 21.5 18.9667 21.3833 19.4 21.15C19.8333 20.9167 20.1917 20.5917 20.475 20.175C20.0917 19.9417 19.6917 19.7708 19.275 19.6625C18.8583 19.5542 18.4333 19.5 18 19.5C17.5667 19.5 17.1417 19.5542 16.725 19.6625C16.3083 19.7708 15.9083 19.9417 15.525 20.175C15.8083 20.5917 16.1667 20.9167 16.6 21.15C17.0333 21.3833 17.5 21.5 18 21.5ZM5 21.5C4.45 21.5 3.97917 21.3042 3.5875 20.9125C3.19583 20.5208 3 20.05 3 19.5V5.5C3 4.95 3.19583 4.47917 3.5875 4.0875C3.97917 3.69583 4.45 3.5 5 3.5H19C19.55 3.5 20.0208 3.69583 20.4125 4.0875C20.8042 4.47917 21 4.95 21 5.5V12.2C20.6833 12.05 20.3583 11.9208 20.025 11.8125C19.6917 11.7042 19.35 11.625 19 11.575V5.5H5V19.5H11.05C11.1 19.8667 11.1792 20.2167 11.2875 20.55C11.3958 20.8833 11.525 21.2 11.675 21.5H5ZM5 19.5V5.5V11.575V11.5V19.5ZM7 17.5H11.075C11.125 17.15 11.2042 16.8083 11.3125 16.475C11.4208 16.1417 11.5417 15.8167 11.675 15.5H7V17.5ZM7 13.5H13.1C13.6333 13 14.2292 12.5833 14.8875 12.25C15.5458 11.9167 16.25 11.6917 17 11.575V11.5H7V13.5ZM7 9.5H17V7.5H7V9.5ZM18 23.5C16.6167 23.5 15.4375 23.0125 14.4625 22.0375C13.4875 21.0625 13 19.8833 13 18.5C13 17.1167 13.4875 15.9375 14.4625 14.9625C15.4375 13.9875 16.6167 13.5 18 13.5C19.3833 13.5 20.5625 13.9875 21.5375 14.9625C22.5125 15.9375 23 17.1167 23 18.5C23 19.8833 22.5125 21.0625 21.5375 22.0375C20.5625 23.0125 19.3833 23.5 18 23.5Z" fill="#5137E0"/>
</g>
</svg>
