<svg width="19" height="21" viewBox="0 0 19 21" fill="none" xmlns="http://www.w3.org/2000/svg">
<path d="M10 20.5V17.425L15.525 11.925C15.675 11.775 15.8417 11.6667 16.025 11.6C16.2083 11.5333 16.3917 11.5 16.575 11.5C16.775 11.5 16.9667 11.5375 17.15 11.6125C17.3333 11.6875 17.5 11.8 17.65 11.95L18.575 12.875C18.7083 13.025 18.8125 13.1917 18.8875 13.375C18.9625 13.5583 19 13.7417 19 13.925C19 14.1083 18.9667 14.2958 18.9 14.4875C18.8333 14.6792 18.725 14.85 18.575 15L13.075 20.5H10ZM11.5 19H12.45L15.475 15.95L15.025 15.475L14.55 15.025L11.5 18.05V19ZM2 20.5C1.45 20.5 0.979167 20.3042 0.5875 19.9125C0.195833 19.5208 0 19.05 0 18.5V2.5C0 1.95 0.195833 1.47917 0.5875 1.0875C0.979167 0.695833 1.45 0.5 2 0.5H10L16 6.5V9.5H14V7.5H9V2.5H2V18.5H8V20.5H2ZM15.025 15.475L14.55 15.025L15.475 15.95L15.025 15.475Z" fill="#5137E0"/>
</svg>
