<svg width="20" height="21" viewBox="0 0 20 21" fill="none" xmlns="http://www.w3.org/2000/svg">
<rect x="-3.75" y="0.5" width="28" height="20" rx="2" fill="white"/>
<mask id="mask0_75_883" style="mask-type:luminance" maskUnits="userSpaceOnUse" x="-4" y="0" width="29" height="21">
<rect x="-3.75" y="0.5" width="28" height="20" rx="2" fill="white"/>
</mask>
<g mask="url(#mask0_75_883)">
<path fill-rule="evenodd" clip-rule="evenodd" d="M-3.75 5.83333H24.25V0.5H-3.75V5.83333Z" fill="#DD172C"/>
<path fill-rule="evenodd" clip-rule="evenodd" d="M-3.75 20.5H24.25V15.1667H-3.75V20.5Z" fill="#DD172C"/>
<path fill-rule="evenodd" clip-rule="evenodd" d="M-3.75 15.1667H24.25V5.83333H-3.75V15.1667Z" fill="#FFD133"/>
<path fill-rule="evenodd" clip-rule="evenodd" d="M3.58325 9.83333H4.91659V10.5H3.58325V9.83333Z" fill="#FFEDB1"/>
<path d="M2.3091 9.86102C2.2929 9.66668 2.44627 9.5 2.64128 9.5H4.52555C4.72056 9.5 4.87393 9.66668 4.85773 9.86102L4.68645 11.9164C4.64326 12.4347 4.20999 12.8333 3.6899 12.8333H3.47693C2.95684 12.8333 2.52357 12.4347 2.48038 11.9164L2.3091 9.86102Z" stroke="#A41517" stroke-width="0.666667"/>
<path fill-rule="evenodd" clip-rule="evenodd" d="M2.25 10.5H4.91667V11.1667H4.25L3.58333 12.5L2.91667 11.1667H2.25V10.5Z" fill="#A41517"/>
<rect x="0.25" y="8.5" width="1.33333" height="4.66667" rx="0.666667" fill="#A41517"/>
<rect x="5.58325" y="8.5" width="1.33333" height="4.66667" rx="0.666667" fill="#A41517"/>
<path d="M2.25 8.23333C2.25 7.64423 2.72756 7.16667 3.31667 7.16667H3.85C4.4391 7.16667 4.91667 7.64423 4.91667 8.23333C4.91667 8.38061 4.79728 8.5 4.65 8.5H2.51667C2.36939 8.5 2.25 8.38061 2.25 8.23333Z" fill="#A41517"/>
</g>
</svg>
