<svg width="20" height="21" viewBox="0 0 20 21" fill="none" xmlns="http://www.w3.org/2000/svg">
<mask id="mask0_81_557" style="mask-type:alpha" maskUnits="userSpaceOnUse" x="0" y="0" width="20" height="21">
<rect y="0.5" width="20" height="20" fill="#E1DDF4"/>
</mask>
<g mask="url(#mask0_81_557)">
<path d="M9.16669 14.6667H10.8334V9.66666H9.16669V14.6667ZM10 7.99999C10.2361 7.99999 10.434 7.92013 10.5938 7.76041C10.7535 7.60068 10.8334 7.40277 10.8334 7.16666C10.8334 6.93055 10.7535 6.73263 10.5938 6.57291C10.434 6.41318 10.2361 6.33332 10 6.33332C9.76391 6.33332 9.56599 6.41318 9.40627 6.57291C9.24655 6.73263 9.16669 6.93055 9.16669 7.16666C9.16669 7.40277 9.24655 7.60068 9.40627 7.76041C9.56599 7.92013 9.76391 7.99999 10 7.99999ZM10 18.8333C8.84724 18.8333 7.76391 18.6146 6.75002 18.1771C5.73613 17.7396 4.85419 17.1458 4.10419 16.3958C3.35419 15.6458 2.76044 14.7639 2.32294 13.75C1.88544 12.7361 1.66669 11.6528 1.66669 10.5C1.66669 9.34721 1.88544 8.26388 2.32294 7.24999C2.76044 6.2361 3.35419 5.35416 4.10419 4.60416C4.85419 3.85416 5.73613 3.26041 6.75002 2.82291C7.76391 2.38541 8.84724 2.16666 10 2.16666C11.1528 2.16666 12.2361 2.38541 13.25 2.82291C14.2639 3.26041 15.1459 3.85416 15.8959 4.60416C16.6459 5.35416 17.2396 6.2361 17.6771 7.24999C18.1146 8.26388 18.3334 9.34721 18.3334 10.5C18.3334 11.6528 18.1146 12.7361 17.6771 13.75C17.2396 14.7639 16.6459 15.6458 15.8959 16.3958C15.1459 17.1458 14.2639 17.7396 13.25 18.1771C12.2361 18.6146 11.1528 18.8333 10 18.8333ZM10 17.1667C11.8611 17.1667 13.4375 16.5208 14.7292 15.2292C16.0209 13.9375 16.6667 12.3611 16.6667 10.5C16.6667 8.63888 16.0209 7.06249 14.7292 5.77082C13.4375 4.47916 11.8611 3.83332 10 3.83332C8.13891 3.83332 6.56252 4.47916 5.27085 5.77082C3.97919 7.06249 3.33335 8.63888 3.33335 10.5C3.33335 12.3611 3.97919 13.9375 5.27085 15.2292C6.56252 16.5208 8.13891 17.1667 10 17.1667Z" fill="#5137E0"/>
</g>
</svg>
