<svg width="22" height="16" viewBox="0 0 22 16" fill="none" xmlns="http://www.w3.org/2000/svg">
<path d="M5.5 16.0002C3.98333 16.0002 2.6875 15.4752 1.6125 14.4252C0.5375 13.3752 0 12.0918 0 10.5752C0 9.27518 0.391667 8.11685 1.175 7.10018C1.95833 6.08352 2.98333 5.43352 4.25 5.15018C4.66667 3.61685 5.5 2.37518 6.75 1.42518C8 0.475183 9.41667 0.000183105 11 0.000183105C12.95 0.000183105 14.6042 0.67935 15.9625 2.03768C17.3208 3.39602 18 5.05018 18 7.00018C19.15 7.13352 20.1042 7.62935 20.8625 8.48768C21.6208 9.34602 22 10.3502 22 11.5002C22 12.7502 21.5625 13.8127 20.6875 14.6877C19.8125 15.5627 18.75 16.0002 17.5 16.0002H12C11.45 16.0002 10.9792 15.8043 10.5875 15.4127C10.1958 15.021 10 14.5502 10 14.0002V8.85018L8.4 10.4002L7 9.00018L11 5.00018L15 9.00018L13.6 10.4002L12 8.85018V14.0002H17.5C18.2 14.0002 18.7917 13.7585 19.275 13.2752C19.7583 12.7919 20 12.2002 20 11.5002C20 10.8002 19.7583 10.2085 19.275 9.72518C18.7917 9.24185 18.2 9.00018 17.5 9.00018H16V7.00018C16 5.61685 15.5125 4.43768 14.5375 3.46268C13.5625 2.48768 12.3833 2.00018 11 2.00018C9.61667 2.00018 8.4375 2.48768 7.4625 3.46268C6.4875 4.43768 6 5.61685 6 7.00018H5.5C4.53333 7.00018 3.70833 7.34185 3.025 8.02518C2.34167 8.70852 2 9.53352 2 10.5002C2 11.4669 2.34167 12.2919 3.025 12.9752C3.70833 13.6585 4.53333 14.0002 5.5 14.0002H8V16.0002H5.5Z" fill="#5137E0"/>
</svg>
