<svg width="18" height="18" viewBox="0 0 18 18" fill="none" xmlns="http://www.w3.org/2000/svg">
<mask id="mask0_81_536" style="mask-type:alpha" maskUnits="userSpaceOnUse" x="0" y="0" width="18" height="18">
<rect width="18" height="18" fill="#E1DDF4"/>
</mask>
<g mask="url(#mask0_81_536)">
<path d="M6.0003 13.5003L9.0003 11.2128L12.0003 13.5003L10.8753 9.7878L13.8753 7.6503H10.2003L9.0003 3.7503L7.8003 7.6503H4.1253L7.1253 9.7878L6.0003 13.5003ZM9.0003 16.5003C7.9628 16.5003 6.9878 16.3034 6.0753 15.9097C5.1628 15.5159 4.36906 14.9816 3.69406 14.3066C3.01906 13.6316 2.48468 12.8378 2.09093 11.9253C1.69718 11.0128 1.50031 10.0378 1.50031 9.0003C1.50031 7.9628 1.69718 6.9878 2.09093 6.0753C2.48468 5.1628 3.01906 4.36906 3.69406 3.69406C4.36906 3.01906 5.1628 2.48468 6.0753 2.09093C6.9878 1.69718 7.9628 1.50031 9.0003 1.50031C10.0378 1.50031 11.0128 1.69718 11.9253 2.09093C12.8378 2.48468 13.6316 3.01906 14.3066 3.69406C14.9816 4.36906 15.5159 5.1628 15.9097 6.0753C16.3034 6.9878 16.5003 7.9628 16.5003 9.0003C16.5003 10.0378 16.3034 11.0128 15.9097 11.9253C15.5159 12.8378 14.9816 13.6316 14.3066 14.3066C13.6316 14.9816 12.8378 15.5159 11.9253 15.9097C11.0128 16.3034 10.0378 16.5003 9.0003 16.5003ZM9.0003 15.0003C10.6753 15.0003 12.0941 14.4191 13.2566 13.2566C14.4191 12.0941 15.0003 10.6753 15.0003 9.0003C15.0003 7.3253 14.4191 5.90656 13.2566 4.74406C12.0941 3.58156 10.6753 3.00031 9.0003 3.00031C7.3253 3.00031 5.90656 3.58156 4.74406 4.74406C3.58156 5.90656 3.00031 7.3253 3.00031 9.0003C3.00031 10.6753 3.58156 12.0941 4.74406 13.2566C5.90656 14.4191 7.3253 15.0003 9.0003 15.0003Z" fill="#FFB800"/>
</g>
</svg>
