<svg width="20" height="13" viewBox="0 0 20 13" fill="none" xmlns="http://www.w3.org/2000/svg">
<path d="M10 0.583328C10.7735 0.583328 11.5154 0.890619 12.0624 1.4376C12.6094 1.98458 12.9167 2.72645 12.9167 3.49999C12.9167 4.27354 12.6094 5.01541 12.0624 5.56239C11.5154 6.10937 10.7735 6.41666 10 6.41666C9.22645 6.41666 8.48459 6.10937 7.93761 5.56239C7.39062 5.01541 7.08333 4.27354 7.08333 3.49999C7.08333 2.72645 7.39062 1.98458 7.93761 1.4376C8.48459 0.890619 9.22645 0.583328 10 0.583328ZM4.16667 2.66666C4.63333 2.66666 5.06667 2.79166 5.44167 3.01666C5.31667 4.20833 5.66667 5.39166 6.38333 6.31666C5.96667 7.11666 5.13333 7.66666 4.16667 7.66666C3.50363 7.66666 2.86774 7.40327 2.3989 6.93443C1.93006 6.46559 1.66667 5.8297 1.66667 5.16666C1.66667 4.50362 1.93006 3.86774 2.3989 3.39889C2.86774 2.93005 3.50363 2.66666 4.16667 2.66666ZM15.8333 2.66666C16.4964 2.66666 17.1323 2.93005 17.6011 3.39889C18.0699 3.86774 18.3333 4.50362 18.3333 5.16666C18.3333 5.8297 18.0699 6.46559 17.6011 6.93443C17.1323 7.40327 16.4964 7.66666 15.8333 7.66666C14.8667 7.66666 14.0333 7.11666 13.6167 6.31666C14.3432 5.37868 14.6805 4.19683 14.5583 3.01666C14.9333 2.79166 15.3667 2.66666 15.8333 2.66666ZM4.58333 11.2083C4.58333 9.48333 7.00833 8.08333 10 8.08333C12.9917 8.08333 15.4167 9.48333 15.4167 11.2083V12.6667H4.58333V11.2083ZM0 12.6667V11.4167C0 10.2583 1.575 9.28333 3.70833 9C3.21667 9.56666 2.91667 10.35 2.91667 11.2083V12.6667H0ZM20 12.6667H17.0833V11.2083C17.0833 10.35 16.7833 9.56666 16.2917 9C18.425 9.28333 20 10.2583 20 11.4167V12.6667Z" fill="#5137E0"/>
</svg>
