<svg width="21" height="22" viewBox="0 0 21 22" fill="none" xmlns="http://www.w3.org/2000/svg">
<path d="M15.1555 7.94117C16.6148 8.95611 18.4024 9.5533 20.3332 9.5533V5.93842C19.9678 5.9385 19.6033 5.90138 19.2458 5.82769V8.67312C17.3152 8.67312 15.5278 8.07601 14.0682 7.06114V14.4381C14.0682 18.1285 10.9935 21.1199 7.2009 21.1199C5.7858 21.1199 4.47046 20.7037 3.37786 19.9897C4.62491 21.2304 6.36401 22 8.28795 22C12.0808 22 15.1557 19.0086 15.1557 15.3181L15.1555 7.94117ZM16.4969 4.2942C15.7511 3.50148 15.2614 2.47703 15.1555 1.34443V0.879504H14.1251C14.3845 2.31899 15.2693 3.54879 16.4969 4.2942ZM5.77665 17.1579C5.36 16.6264 5.13477 15.9761 5.13578 15.3075C5.13578 13.6197 6.54214 12.2512 8.27725 12.2512C8.60055 12.251 8.92196 12.2993 9.23016 12.3944V8.69867C8.86999 8.65068 8.50655 8.63022 8.14326 8.63775V11.5143C7.83492 11.4191 7.51335 11.3709 7.18988 11.3712C5.45485 11.3712 4.04858 12.7395 4.04858 14.4276C4.04858 15.6212 4.75148 16.6545 5.77665 17.1579Z" fill="#FF004F"/>
<path d="M14.0682 7.06114C15.5278 8.07601 17.3152 8.67312 19.2458 8.67312V5.82769C18.1681 5.60432 17.2142 5.05634 16.4969 4.2942C15.2693 3.54879 14.3845 2.31899 14.1251 0.879504H11.4184V15.3179C11.4123 17.0012 10.0083 18.3641 8.27697 18.3641C7.25679 18.3641 6.35065 17.891 5.77665 17.1579C4.75148 16.6545 4.04858 15.6212 4.04858 14.4276C4.04858 12.7395 5.45485 11.3712 7.18988 11.3712C7.52231 11.3712 7.84271 11.4215 8.14326 11.5143V8.63775C4.41725 8.71266 1.42051 11.6749 1.42051 15.318C1.42051 17.1366 2.16674 18.7851 3.37786 19.9897C4.47046 20.7037 5.7858 21.1199 7.2009 21.1199C10.9935 21.1199 14.0682 18.1285 14.0682 14.4381V7.06114Z" fill="black"/>
<path d="M19.2458 5.82769L19.2457 5.05884C18.2739 5.06028 17.3215 4.79496 16.4969 4.2942C17.2268 5.07164 18.1878 5.60776 19.2458 5.82769ZM14.1251 0.879504C14.1004 0.741968 14.0812 0.603957 14.068 0.464921V0H10.3309V14.4386C10.325 16.1217 8.92107 17.4846 7.18963 17.4846C6.69878 17.4853 6.21498 17.373 5.77665 17.1579C6.35065 17.891 7.25679 18.3641 8.27697 18.3641C10.0083 18.3641 11.4123 17.0012 11.4184 15.3179V0.879504H14.1251ZM8.14326 8.63775L8.14324 7.81924C7.83097 7.77769 7.51614 7.7569 7.20096 7.75703C3.40792 7.75703 0.333252 10.7486 0.333252 14.4386C0.333252 16.7521 1.54157 18.7904 3.37786 19.9897C2.16674 18.7851 1.42051 17.1366 1.42051 15.318C1.42051 11.6749 4.41725 8.71266 8.14326 8.63775Z" fill="#00F2EA"/>
</svg>
