<svg width="25" height="17" viewBox="0 0 25 17" fill="none" xmlns="http://www.w3.org/2000/svg">
<path d="M24.1369 2.65157C23.9992 2.13907 23.7307 1.67183 23.358 1.29639C22.9853 0.920955 22.5216 0.650413 22.0128 0.511709C20.1504 0 12.6545 0 12.6545 0C12.6545 0 5.15835 0.0154891 3.29588 0.527198C2.78714 0.66591 2.32334 0.936466 1.95068 1.31192C1.57802 1.68738 1.30949 2.15463 1.17184 2.66716C0.60849 6.00091 0.389955 11.0808 1.18731 14.2812C1.32497 14.7937 1.59351 15.2609 1.96617 15.6364C2.33883 16.0118 2.80262 16.2823 3.31135 16.421C5.17382 16.9328 12.6698 16.9328 12.6698 16.9328C12.6698 16.9328 20.1657 16.9328 22.0281 16.421C22.5368 16.2824 23.0007 16.0118 23.3733 15.6364C23.746 15.2609 24.0146 14.7937 24.1522 14.2812C24.7464 10.9427 24.9295 5.86595 24.1369 2.65157Z" fill="#FF0000"/>
<path d="M10.2686 12.0948L16.487 8.46633L10.2686 4.8379V12.0948Z" fill="white"/>
</svg>
